<svg id="Layer_5" data-name="Layer 5" xmlns="http://www.w3.org/2000/svg" xmlns:xlink="http://www.w3.org/1999/xlink" viewBox="0 0 842.31 453.92"><defs><style>.cls-1{fill:url(#linear-gradient);}.cls-2{fill:url(#linear-gradient-2);}.cls-3{fill:url(#linear-gradient-3);}.cls-4{fill:url(#linear-gradient-4);}.cls-5{font-size:136.98px;fill:#fff;font-family:Bolonewt;}.cls-6{fill:#fbb03b;}</style><linearGradient id="linear-gradient" x1="448.45" y1="410.98" x2="572.55" y2="396.16" gradientTransform="translate(360.13 -554.58) rotate(48.96)" gradientUnits="userSpaceOnUse"><stop offset="0.05" stop-color="#b17400"/><stop offset="0.19" stop-color="#ffd551"/><stop offset="0.31" stop-color="#fffd9b"/><stop offset="0.62" stop-color="#daa105"/><stop offset="0.94" stop-color="#b27b00"/></linearGradient><linearGradient id="linear-gradient-2" x1="486.01" y1="402.32" x2="505.68" y2="514.2" gradientTransform="matrix(0.66, 0.75, -0.75, 0.66, 529.58, -260.45)" xlink:href="#linear-gradient"/><linearGradient id="linear-gradient-3" x1="508.49" y1="411.79" x2="665.93" y2="392.99" xlink:href="#linear-gradient"/><linearGradient id="linear-gradient-4" x1="569.4" y1="406.77" x2="577.29" y2="530.36" gradientTransform="matrix(0.66, 0.75, -0.75, 0.66, 529.58, -260.45)" xlink:href="#linear-gradient"/></defs><title>logo_ln</title><polygon class="cls-1" points="378.13 196.9 297.69 105.35 412.95 2.32 443.86 36.66 356.85 115.14 406.64 171.22 378.13 196.9"/><path class="cls-2" d="M428.07,412.92l117.7-105.2,33.1,36.78-87,78.48,49.78,56.09L510.69,507ZM545.52,312.35,432.69,413.2,511,502.28,537,478.81l-49.79-56.08,87-78.47Z" transform="translate(-132.69 -307.72)"/><polygon class="cls-3" points="367.87 116.49 397.13 150.45 427.99 122.4 403.17 225.94 431.53 258.52 548.68 153.01 518.49 120.2 453.9 178.44 458.25 160.52 478.92 76 449.29 43.3 367.87 116.49"/><path class="cls-4" d="M564.08,568.57l-30-34.48,23.77-99.17-28.16,25.6-31.41-36.46,83.84-75.36,31.31,34.56-24,98.12,61.85-55.77,32.42,35.23L682.48,462Zm-26.42-35.36,26.71,30.68L679,460.62l-28-30.4-67.34,60.72,5.6-23.09,20.47-83.68-27.94-30.84-79,71L530,455.82l33.56-30.51Z" transform="translate(-132.69 -307.72)"/><text class="cls-5" transform="translate(0 387.18)">LEITE NEVES</text><path class="cls-6" d="M166,738.86H143v18.91h25.16l-.52,3.22H139.51V716h27.6v3.22H143v16.46h23Z" transform="translate(-132.69 -307.72)"/><path class="cls-6" d="M177.72,748.9c1.35,6,5.34,9.52,12.74,9.52,8.24,0,11.39-4.12,11.39-9,0-5.08-2.25-8.23-12.16-10.68-9.52-2.38-13.64-5.47-13.64-12,0-5.92,4.31-11.45,14-11.45,9.91,0,14.09,6,14.67,11.51h-3.6c-1-4.82-4.19-8.3-11.26-8.3-6.5,0-10,3-10,8s3,6.89,11.26,8.95c12.67,3.15,14.54,8.23,14.54,13.63,0,6.63-4.83,12.36-15.25,12.36-11.26,0-15.37-6.57-16.21-12.61Z" transform="translate(-132.69 -307.72)"/><path class="cls-6" d="M249.58,749c-2.12,7.14-7.39,12.55-16.92,12.55-12.93,0-19.74-10.3-19.74-23,0-12.16,6.69-23.22,19.81-23.22,9.71,0,15.44,5.4,16.92,12.93h-3.48c-2-5.86-5.85-9.72-13.63-9.72-11.2,0-15.89,10.23-15.89,20s4.63,19.81,16.14,19.81c7.34,0,11.07-3.8,13.32-9.33Z" transform="translate(-132.69 -307.72)"/><path class="cls-6" d="M262.84,740v21H259.3V716h16.15c8.88,0,13.57,4.76,13.57,11.84a10.2,10.2,0,0,1-8.43,10.55c4.64,1.09,7.72,4.11,7.72,11.77v1.74c0,3.15-.25,7.39.58,9.13h-3.54c-.83-1.93-.64-5.53-.64-9.39v-1.16c0-7.4-2.19-10.48-10.81-10.48Zm0-3.22h10.87c7.91,0,11.58-3,11.58-8.88,0-5.53-3.6-8.68-10.61-8.68H262.84Z" transform="translate(-132.69 -307.72)"/><path class="cls-6" d="M303.5,716v45H300V716Z" transform="translate(-132.69 -307.72)"/><path class="cls-6" d="M325.76,719.18H310.64V716h33.84v3.22H329.3V761h-3.54Z" transform="translate(-132.69 -307.72)"/><path class="cls-6" d="M387.78,738.15c0,12.29-6.57,23.48-20.46,23.48-12.67,0-20.07-10.22-20.07-23.15,0-12.74,7.14-23.16,20.52-23.16C380.12,715.32,387.78,725,387.78,738.15Zm-36.8.13c0,10.36,5.72,20.14,16.53,20.14,11.65,0,16.53-9.52,16.53-20.2,0-10.49-5.53-19.69-16.4-19.69C356.06,718.53,351,728.12,351,738.28Zm28.56-35.64-10.81,8.82h-4l9.9-8.82Z" transform="translate(-132.69 -307.72)"/><path class="cls-6" d="M401.22,740v21h-3.53V716h16.14c8.88,0,13.58,4.76,13.58,11.84A10.2,10.2,0,0,1,419,738.35c4.63,1.09,7.72,4.11,7.72,11.77v1.74c0,3.15-.26,7.39.58,9.13h-3.54c-.84-1.93-.64-5.53-.64-9.39v-1.16c0-7.4-2.19-10.48-10.81-10.48Zm0-3.22H412.1c7.91,0,11.58-3,11.58-8.88,0-5.53-3.61-8.68-10.62-8.68H401.22Z" transform="translate(-132.69 -307.72)"/><path class="cls-6" d="M441.88,716v45h-3.47V716Z" transform="translate(-132.69 -307.72)"/><path class="cls-6" d="M492.32,738.15c0,12.29-6.56,23.48-20.46,23.48-12.67,0-20.07-10.22-20.07-23.15,0-12.74,7.14-23.16,20.52-23.16C484.67,715.32,492.32,725,492.32,738.15Zm-36.8.13c0,10.36,5.73,20.14,16.54,20.14,11.64,0,16.53-9.52,16.53-20.2,0-10.49-5.53-19.69-16.4-19.69C460.61,718.53,455.52,728.12,455.52,738.28Z" transform="translate(-132.69 -307.72)"/><path class="cls-6" d="M519,716h14.92c12.36,0,20.91,8.62,20.91,22.13s-8.36,22.9-21,22.9H519Zm3.47,41.81H533.3c11.91,0,17.76-8.36,17.76-19.49,0-9.9-5.27-19.1-17.76-19.1H522.43Z" transform="translate(-132.69 -307.72)"/><path class="cls-6" d="M591.14,738.86h-23v18.91h25.15l-.52,3.22H564.7V716h27.6v3.22H568.18v16.46h23Z" transform="translate(-132.69 -307.72)"/><path class="cls-6" d="M623.57,745.42,617.84,761h-3.53l16.53-45H635l17.24,45h-3.8l-5.85-15.57Zm17.82-3.21c-5-13.38-7.59-19.82-8.49-22.84h-.07c-1.09,3.41-4,11.39-8,22.84Z" transform="translate(-132.69 -307.72)"/><path class="cls-6" d="M660.18,716H675.1c12.35,0,20.91,8.62,20.91,22.13S687.65,761,675,761H660.18Zm3.47,41.81h10.87c11.9,0,17.76-8.36,17.76-19.49,0-9.9-5.28-19.1-17.76-19.1H663.65Z" transform="translate(-132.69 -307.72)"/><path class="cls-6" d="M717.24,761l-16.72-45h3.73L713,739.5c2.5,6.82,5.34,14.35,6.3,18.15h.13c1-3.35,4.05-11.26,6.56-17.89l9.07-23.8h3.67l-17.37,45Z" transform="translate(-132.69 -307.72)"/><path class="cls-6" d="M783.76,738.15c0,12.29-6.56,23.48-20.45,23.48-12.68,0-20.07-10.22-20.07-23.15,0-12.74,7.14-23.16,20.52-23.16C776.11,715.32,783.76,725,783.76,738.15Zm-36.79.13c0,10.36,5.72,20.14,16.53,20.14,11.64,0,16.53-9.52,16.53-20.2,0-10.49-5.53-19.69-16.4-19.69C752.05,718.53,747,728.12,747,738.28Z" transform="translate(-132.69 -307.72)"/><path class="cls-6" d="M827.64,749c-2.12,7.14-7.4,12.55-16.92,12.55-12.93,0-19.75-10.3-19.75-23,0-12.16,6.69-23.22,19.82-23.22,9.71,0,15.43,5.4,16.92,12.93h-3.48c-2.06-5.86-5.85-9.72-13.64-9.72-11.19,0-15.89,10.23-15.89,20s4.63,19.81,16.15,19.81c7.33,0,11.07-3.8,13.32-9.33Z" transform="translate(-132.69 -307.72)"/><path class="cls-6" d="M841.54,745.42,835.81,761h-3.53l16.53-45h4.12l17.24,45h-3.8l-5.85-15.57Zm17.82-3.21c-5-13.38-7.59-19.82-8.49-22.84h-.07c-1.09,3.41-4,11.39-8,22.84Z" transform="translate(-132.69 -307.72)"/><path class="cls-6" d="M911.41,749c-2.13,7.14-7.4,12.55-16.92,12.55-12.93,0-19.75-10.3-19.75-23,0-12.16,6.69-23.22,19.81-23.22,9.72,0,15.44,5.4,16.92,12.93H908c-2.06-5.86-5.86-9.72-13.64-9.72-11.19,0-15.89,10.23-15.89,20s4.63,19.81,16.15,19.81c7.33,0,11.06-3.8,13.31-9.33Z" transform="translate(-132.69 -307.72)"/><path class="cls-6" d="M924.6,716v45h-3.48V716Z" transform="translate(-132.69 -307.72)"/><path class="cls-6" d="M942,745.42,936.31,761h-3.54l16.53-45h4.12l17.24,45h-3.8L961,745.42Zm17.82-3.21c-5-13.38-7.59-19.82-8.49-22.84h-.06c-1.1,3.41-4,11.39-8,22.84Z" transform="translate(-132.69 -307.72)"/></svg>